<svg xmlns="http://www.w3.org/2000/svg" width="1024" height="1024" viewBox="0 0 1024 1024" version="1.1"><path d="M 506.214 171.750 C 505.110 172.713, 498.921 182.725, 492.460 194 C 477.881 219.443, 370.599 405.004, 305.717 517 C 273.129 573.253, 209.941 682.599, 185.635 724.801 C 161.154 767.308, 160.753 768.277, 165.413 773.694 C 169.639 778.607, 951.683 778.517, 956.596 773.604 C 961.528 768.672, 961.372 768.197, 945.614 740.126 C 929.723 711.819, 911.622 678.596, 877.985 616 C 865.719 593.175, 838.258 542.100, 816.960 502.500 C 795.662 462.900, 766.545 408.675, 752.255 382 C 715.572 313.521, 721.783 315.400, 689.691 363.073 C 669.451 393.138, 627.484 454.024, 602.650 489.352 C 588.799 509.054, 588.799 509.054, 591.400 511.100 C 596.523 515.130, 585.659 535.106, 579.178 533.571 C 577.705 533.222, 575.958 532.839, 575.295 532.719 C 568.184 531.429, 563.130 549.273, 569.250 554.060 C 581.823 563.896, 582.599 560.004, 560.634 597.308 C 511.175 681.307, 509.459 685.893, 516.792 714.496 C 519.076 723.406, 519.066 723.484, 515.675 722.633 C 509.044 720.969, 503.623 715.639, 499 706.238 C 494.835 697.769, 483 691.699, 483 698.032 C 483 700.105, 487.200 711.453, 490.075 717.149 C 493.029 723, 493.029 723, 484.242 723 C 472.455 723, 460 710.681, 460 699.022 C 460 697.199, 459.357 697, 453.481 697 C 446.962 697, 446.962 697, 447.570 699.750 C 448.800 705.317, 451.339 712.625, 453.638 717.217 C 454.937 719.811, 456 722.173, 456 722.467 C 456 724.317, 438.102 722.868, 435.480 720.806 C 432.427 718.404, 426.588 706.697, 425.478 700.750 C 424.777 697, 424.777 697, 418.495 697 C 411.296 697, 411.504 704.011, 419.157 719.250 C 421.041 723, 421.041 723, 412.270 722.965 C 399.123 722.911, 395.122 719.262, 389.557 702.250 C 387.829 696.970, 376 693.586, 376 698.372 C 376 700.547, 380.815 714.717, 383.028 719.056 C 386.334 725.534, 369.759 725.194, 363.493 718.654 C 338.029 692.078, 334.338 608.894, 356.558 562.370 C 376.345 520.943, 389.746 511.930, 433 510.961 C 465.601 510.231, 467.569 509.908, 480.469 503.165 C 493.896 496.147, 520.281 465.905, 517.775 460.405 C 516.498 457.604, 517.261 456.289, 526.095 446.050 C 532.196 438.979, 532.817 438.660, 537.070 440.425 C 538.462 441.002, 565.344 404.731, 610.332 341.577 C 614.164 336.198, 614.164 336.198, 599.224 310.849 C 591.008 296.907, 572.901 265.925, 558.988 242 C 523.054 180.209, 518.192 172.173, 516.042 171.023 C 513.118 169.458, 508.447 169.803, 506.214 171.750 M 608.899 393.660 C 597.130 409.983, 581.782 431.249, 574.794 440.919 C 564.854 454.672, 562.211 458.992, 562.655 460.760 C 563.664 464.782, 550.450 482.625, 547.073 481.800 C 544.502 481.172, 520.365 517.481, 509.380 538.500 C 490.774 574.101, 482.352 618.952, 487.880 653 C 489.814 664.914, 490.933 666.127, 490.970 656.349 C 491.042 636.905, 500.013 600.138, 510.734 575.344 C 519.337 555.447, 536.278 529.857, 616.689 415.285 C 629.510 397.017, 640 381.551, 640 380.916 C 640 379.914, 634.985 370.985, 631.476 365.741 C 630.452 364.211, 627.506 367.854, 608.899 393.660" stroke="none" fill="#046bcb" fill-rule="evenodd"/><path d="M 0 512.001 L 0 1024.002 512.250 1023.751 L 1024.500 1023.500 1024.751 511.750 L 1025.002 0 512.501 0 L 0 0 0 512.001 M 0.496 512.500 C 0.496 794.100, 0.610 909.151, 0.750 768.168 C 0.890 627.186, 0.890 396.786, 0.750 256.168 C 0.610 115.551, 0.496 230.900, 0.496 512.500 M 506.214 171.750 C 505.110 172.713, 498.921 182.725, 492.460 194 C 477.881 219.443, 370.599 405.004, 305.717 517 C 273.129 573.253, 209.941 682.599, 185.635 724.801 C 161.154 767.308, 160.753 768.277, 165.413 773.694 C 169.639 778.607, 951.683 778.517, 956.596 773.604 C 961.528 768.672, 961.372 768.197, 945.614 740.126 C 929.723 711.819, 911.622 678.596, 877.985 616 C 865.719 593.175, 838.258 542.100, 816.960 502.500 C 795.662 462.900, 766.545 408.675, 752.255 382 C 715.572 313.521, 721.783 315.400, 689.691 363.073 C 669.451 393.138, 627.484 454.024, 602.650 489.352 C 588.799 509.054, 588.799 509.054, 591.400 511.100 C 596.523 515.130, 585.659 535.106, 579.178 533.571 C 577.705 533.222, 575.958 532.839, 575.295 532.719 C 568.184 531.429, 563.130 549.273, 569.250 554.060 C 581.823 563.896, 582.599 560.004, 560.634 597.308 C 511.175 681.307, 509.459 685.893, 516.792 714.496 C 519.076 723.406, 519.066 723.484, 515.675 722.633 C 509.044 720.969, 503.623 715.639, 499 706.238 C 494.835 697.769, 483 691.699, 483 698.032 C 483 700.105, 487.200 711.453, 490.075 717.149 C 493.029 723, 493.029 723, 484.242 723 C 472.455 723, 460 710.681, 460 699.022 C 460 697.199, 459.357 697, 453.481 697 C 446.962 697, 446.962 697, 447.570 699.750 C 448.800 705.317, 451.339 712.625, 453.638 717.217 C 454.937 719.811, 456 722.173, 456 722.467 C 456 724.317, 438.102 722.868, 435.480 720.806 C 432.427 718.404, 426.588 706.697, 425.478 700.750 C 424.777 697, 424.777 697, 418.495 697 C 411.296 697, 411.504 704.011, 419.157 719.250 C 421.041 723, 421.041 723, 412.270 722.965 C 399.123 722.911, 395.122 719.262, 389.557 702.250 C 387.829 696.970, 376 693.586, 376 698.372 C 376 700.547, 380.815 714.717, 383.028 719.056 C 386.334 725.534, 369.759 725.194, 363.493 718.654 C 338.029 692.078, 334.338 608.894, 356.558 562.370 C 376.345 520.943, 389.746 511.930, 433 510.961 C 465.601 510.231, 467.569 509.908, 480.469 503.165 C 493.896 496.147, 520.281 465.905, 517.775 460.405 C 516.498 457.604, 517.261 456.289, 526.095 446.050 C 532.196 438.979, 532.817 438.660, 537.070 440.425 C 538.462 441.002, 565.344 404.731, 610.332 341.577 C 614.164 336.198, 614.164 336.198, 599.224 310.849 C 591.008 296.907, 572.901 265.925, 558.988 242 C 523.054 180.209, 518.192 172.173, 516.042 171.023 C 513.118 169.458, 508.447 169.803, 506.214 171.750 M 608.899 393.660 C 597.130 409.983, 581.782 431.249, 574.794 440.919 C 564.854 454.672, 562.211 458.992, 562.655 460.760 C 563.664 464.782, 550.450 482.625, 547.073 481.800 C 544.502 481.172, 520.365 517.481, 509.380 538.500 C 490.774 574.101, 482.352 618.952, 487.880 653 C 489.814 664.914, 490.933 666.127, 490.970 656.349 C 491.042 636.905, 500.013 600.138, 510.734 575.344 C 519.337 555.447, 536.278 529.857, 616.689 415.285 C 629.510 397.017, 640 381.551, 640 380.916 C 640 379.914, 634.985 370.985, 631.476 365.741 C 630.452 364.211, 627.506 367.854, 608.899 393.660" stroke="none" fill="#fbfbfb" fill-rule="evenodd"/></svg>