<svg width="800" height="600" viewBox="0 0 800 600" fill="none" xmlns="http://www.w3.org/2000/svg">
  <!-- Sky background -->
  <rect width="800" height="400" fill="#60a5fa"/>
  
  <!-- Ground -->
  <rect y="400" width="800" height="200" fill="#a3a3a3"/>
  
  <!-- Building under construction -->
  <rect x="200" y="200" width="120" height="200" fill="#e5e7eb" stroke="#9ca3af" stroke-width="2"/>
  
  <!-- Building floors -->
  <line x1="200" y1="250" x2="320" y2="250" stroke="#9ca3af" stroke-width="2"/>
  <line x1="200" y1="300" x2="320" y2="300" stroke="#9ca3af" stroke-width="2"/>
  <line x1="200" y1="350" x2="320" y2="350" stroke="#9ca3af" stroke-width="2"/>
  
  <!-- Vertical supports -->
  <line x1="240" y1="200" x2="240" y2="400" stroke="#9ca3af" stroke-width="2"/>
  <line x1="280" y1="200" x2="280" y2="400" stroke="#9ca3af" stroke-width="2"/>
  
  <!-- Crane -->
  <rect x="400" y="100" width="8" height="300" fill="#dc2626"/>
  <rect x="350" y="96" width="120" height="8" fill="#dc2626"/>
  <rect x="450" y="104" width="60" height="4" fill="#7c2d12"/>
  
  <!-- Crane hook -->
  <line x1="470" y1="108" x2="470" y2="180" stroke="#374151" stroke-width="2"/>
  <rect x="465" y="180" width="10" height="8" fill="#9ca3af"/>
  
  <!-- Construction vehicles -->
  <!-- Excavator -->
  <rect x="500" y="360" width="80" height="40" fill="#fbbf24" rx="8"/>
  <circle cx="520" cy="390" r="15" fill="#374151"/>
  <circle cx="560" cy="390" r="15" fill="#374151"/>
  
  <!-- Excavator arm -->
  <rect x="580" y="350" width="40" height="8" fill="#fbbf24" rx="4"/>
  <rect x="615" y="340" width="25" height="6" fill="#fbbf24" rx="3"/>
  <rect x="635" y="346" width="15" height="8" fill="#9ca3af"/>
  
  <!-- Dump truck -->
  <rect x="50" y="350" width="100" height="50" fill="#2563eb" rx="8"/>
  <rect x="60" y="330" width="40" height="20" fill="#2563eb" rx="4"/>
  <circle cx="80" cy="390" r="15" fill="#374151"/>
  <circle cx="120" cy="390" r="15" fill="#374151"/>
  
  <!-- Materials pile -->
  <ellipse cx="650" cy="380" rx="60" ry="20" fill="#78716c"/>
  <ellipse cx="650" cy="375" rx="50" ry="15" fill="#a8a29e"/>
  
  <!-- Safety cones -->
  <polygon points="100,380 110,360 90,360" fill="#f97316"/>
  <polygon points="300,380 310,360 290,360" fill="#f97316"/>
  <polygon points="450,380 460,360 440,360" fill="#f97316"/>
  
  <!-- Workers -->
  <circle cx="250" cy="365" r="8" fill="#fbbf24"/>
  <rect x="248" y="350" width="4" height="8" fill="#dc2626"/> <!-- Hard hat -->
  <rect x="245" y="373" width="10" height="27" fill="#2563eb"/>
  
  <circle cx="350" cy="365" r="8" fill="#fbbf24"/>
  <rect x="348" y="350" width="4" height="8" fill="#dc2626"/>
  <rect x="345" y="373" width="10" height="27" fill="#2563eb"/>
  
  <!-- Clouds -->
  <circle cx="150" cy="80" r="25" fill="white" opacity="0.8"/>
  <circle cx="170" cy="75" r="30" fill="white" opacity="0.8"/>
  <circle cx="190" cy="80" r="25" fill="white" opacity="0.8"/>
  
  <circle cx="600" cy="60" r="30" fill="white" opacity="0.8"/>
  <circle cx="625" cy="55" r="35" fill="white" opacity="0.8"/>
  <circle cx="650" cy="60" r="30" fill="white" opacity="0.8"/>
</svg>