<svg width="32" height="32" viewBox="0 0 32 32" fill="none" xmlns="http://www.w3.org/2000/svg">
  <!-- Background circle -->
  <circle cx="16" cy="16" r="15" fill="#2563eb" stroke="#1d4ed8" stroke-width="2"/>
  
  <!-- Building/Structure icon -->
  <rect x="8" y="18" width="4" height="8" fill="white" opacity="0.9"/>
  <rect x="14" y="16" width="4" height="10" fill="white" opacity="0.9"/>
  <rect x="20" y="14" width="4" height="12" fill="white" opacity="0.9"/>
  
  <!-- Foundation line -->
  <rect x="6" y="26" width="20" height="1" fill="white"/>
  
  <!-- Windows -->
  <rect x="9" y="20" width="1" height="1" fill="#2563eb"/>
  <rect x="11" y="20" width="1" height="1" fill="#2563eb"/>
  <rect x="9" y="22" width="1" height="1" fill="#2563eb"/>
  <rect x="11" y="22" width="1" height="1" fill="#2563eb"/>
  
  <rect x="15" y="18" width="1" height="1" fill="#2563eb"/>
  <rect x="17" y="18" width="1" height="1" fill="#2563eb"/>
  <rect x="15" y="20" width="1" height="1" fill="#2563eb"/>
  <rect x="17" y="20" width="1" height="1" fill="#2563eb"/>
  
  <rect x="21" y="16" width="1" height="1" fill="#2563eb"/>
  <rect x="23" y="16" width="1" height="1" fill="#2563eb"/>
  <rect x="21" y="18" width="1" height="1" fill="#2563eb"/>
  <rect x="23" y="18" width="1" height="1" fill="#2563eb"/>
  <rect x="21" y="20" width="1" height="1" fill="#2563eb"/>
  <rect x="23" y="20" width="1" height="1" fill="#2563eb"/>
</svg>