<svg width="1200" height="500" viewBox="0 0 1200 500" fill="none" xmlns="http://www.w3.org/2000/svg">
  <!-- Background gradient sky -->
  <defs>
    <linearGradient id="skyGradient" x1="0%" y1="0%" x2="0%" y2="100%">
      <stop offset="0%" style="stop-color:#87CEEB;stop-opacity:1" />
      <stop offset="100%" style="stop-color:#E0F6FF;stop-opacity:1" />
    </linearGradient>
  </defs>
  <rect width="1200" height="300" fill="url(#skyGradient)"/>
  
  <!-- Hillside landscape -->
  <path d="M 0 300 Q 300 250 600 300 Q 900 350 1200 300 L 1200 500 L 0 500 Z" fill="#4ade80"/>
  <path d="M 0 320 Q 400 280 800 320 Q 1000 340 1200 320 L 1200 500 L 0 500 Z" fill="#22c55e"/>
  
  <!-- Modern house structure -->
  <!-- Main building -->
  <rect x="400" y="200" width="200" height="120" fill="#f5f5f5" stroke="#d1d5db" stroke-width="2"/>
  
  <!-- Upper level -->
  <rect x="450" y="150" width="150" height="50" fill="#f5f5f5" stroke="#d1d5db" stroke-width="2"/>
  
  <!-- Modern roof -->
  <polygon points="390,200 410,180 610,180 630,200" fill="#374151"/>
  <polygon points="440,150 460,130 610,130 620,150" fill="#374151"/>
  
  <!-- Large windows -->
  <rect x="420" y="220" width="60" height="80" fill="#3b82f6" stroke="#1d4ed8" stroke-width="2"/>
  <rect x="520" y="220" width="60" height="80" fill="#3b82f6" stroke="#1d4ed8" stroke-width="2"/>
  <rect x="470" y="160" width="80" height="30" fill="#3b82f6" stroke="#1d4ed8" stroke-width="2"/>
  
  <!-- Window frames -->
  <line x1="450" y1="220" x2="450" y2="300" stroke="#1d4ed8" stroke-width="1"/>
  <line x1="420" y1="260" x2="480" y2="260" stroke="#1d4ed8" stroke-width="1"/>
  <line x1="550" y1="220" x2="550" y2="300" stroke="#1d4ed8" stroke-width="1"/>
  <line x1="520" y1="260" x2="580" y2="260" stroke="#1d4ed8" stroke-width="1"/>
  
  <!-- Modern entrance -->
  <rect x="480" y="280" width="40" height="40" fill="#7c2d12"/>
  <circle cx="515" cy="300" r="2" fill="#fbbf24"/>
  
  <!-- Cantilever/overhang -->
  <rect x="380" y="195" width="250" height="8" fill="#9ca3af"/>
  
  <!-- Landscaping -->
  <!-- Trees -->
  <circle cx="300" cy="280" r="25" fill="#16a34a"/>
  <rect x="295" y="305" width="10" height="25" fill="#7c2d12"/>
  
  <circle cx="700" cy="290" r="30" fill="#16a34a"/>
  <rect x="695" y="320" width="10" height="30" fill="#7c2d12"/>
  
  <circle cx="250" cy="300" r="20" fill="#22c55e"/>
  <rect x="247" y="320" width="6" height="20" fill="#7c2d12"/>
  
  <!-- Driveway -->
  <path d="M 350 350 Q 400 340 450 350 L 450 320 Q 400 310 350 320 Z" fill="#6b7280"/>
  
  <!-- Modern landscaping elements -->
  <rect x="600" y="310" width="40" height="8" fill="#9ca3af"/>
  <rect x="610" y="318" width="20" height="4" fill="#16a34a"/>
  <rect x="630" y="322" width="15" height="4" fill="#22c55e"/>
  
  <!-- Title overlay -->
  <rect x="50" y="50" width="400" height="100" fill="white" fill-opacity="0.95" stroke="#e5e7eb" stroke-width="2" rx="12"/>
  <text x="250" y="85" text-anchor="middle" fill="#1f2937" font-family="Arial, sans-serif" font-size="24" font-weight="bold">Modern Hillside Residence</text>
  <text x="250" y="110" text-anchor="middle" fill="#6b7280" font-family="Arial, sans-serif" font-size="14">Contemporary Design • Sustainable Engineering</text>
  <text x="250" y="130" text-anchor="middle" fill="#6b7280" font-family="Arial, sans-serif" font-size="14">San Francisco, CA</text>
</svg>