<svg width="300" height="300" viewBox="0 0 300 300" fill="none" xmlns="http://www.w3.org/2000/svg">
  <!-- Background -->
  <rect width="300" height="300" fill="#f8fafc"/>
  
  <!-- Body -->
  <rect x="100" y="180" width="100" height="120" fill="#1f2937" rx="10"/>
  
  <!-- Business suit -->
  <rect x="110" y="190" width="80" height="80" fill="#374151" rx="8"/>
  
  <!-- Shirt -->
  <rect x="125" y="195" width="50" height="50" fill="white" rx="4"/>
  
  <!-- Tie -->
  <polygon points="150,195 145,210 155,210" fill="#1d4ed8"/>
  <rect x="147" y="210" width="6" height="35" fill="#1d4ed8"/>
  
  <!-- Head -->
  <circle cx="150" cy="130" r="40" fill="#fde68a"/>
  
  <!-- Hair -->
  <path d="M 115 115 Q 150 95 185 115 Q 185 105 150 95 Q 115 105 115 115" fill="#92400e"/>
  
  <!-- Face features -->
  <circle cx="140" cy="125" r="3" fill="#374151"/>
  <circle cx="160" cy="125" r="3" fill="#374151"/>
  <path d="M 145 140 Q 150 145 155 140" stroke="#374151" stroke-width="2" fill="none"/>
  
  <!-- Arms -->
  <rect x="80" y="200" width="25" height="60" fill="#fde68a" rx="12"/>
  <rect x="195" y="200" width="25" height="60" fill="#fde68a" rx="12"/>
  
  <!-- Suit sleeves -->
  <rect x="80" y="200" width="25" height="20" fill="#374151" rx="12"/>
  <rect x="195" y="200" width="25" height="20" fill="#374151" rx="12"/>
  
  <!-- Clipboard/tablet -->
  <rect x="200" y="240" width="18" height="25" fill="#e5e7eb" stroke="#9ca3af" stroke-width="1"/>
  <rect x="202" y="245" width="14" height="2" fill="#3b82f6"/>
  <rect x="202" y="250" width="14" height="2" fill="#3b82f6"/>
  <rect x="202" y="255" width="10" height="2" fill="#3b82f6"/>
  
  <!-- Watch -->
  <rect x="195" y="225" width="8" height="6" fill="#1f2937" rx="2"/>
  <rect x="196" y="226" width="6" height="4" fill="#3b82f6"/>
  
  <!-- Pocket square -->
  <rect x="115" y="200" width="8" height="6" fill="white"/>
  <polygon points="115,200 123,200 119,194" fill="#dc2626"/>
</svg>