<svg width="300" height="300" viewBox="0 0 300 300" fill="none" xmlns="http://www.w3.org/2000/svg">
  <!-- Background -->
  <rect width="300" height="300" fill="#f1f5f9"/>
  
  <!-- Body -->
  <rect x="100" y="180" width="100" height="120" fill="#1f2937" rx="10"/>
  
  <!-- Professional shirt -->
  <rect x="110" y="190" width="80" height="80" fill="#3b82f6" rx="8"/>
  
  <!-- Tie -->
  <polygon points="150,190 140,210 160,210" fill="#dc2626"/>
  <rect x="145" y="210" width="10" height="40" fill="#dc2626"/>
  
  <!-- Head -->
  <circle cx="150" cy="130" r="40" fill="#fbbf24"/>
  
  <!-- Hair -->
  <path d="M 110 120 Q 150 90 190 120 Q 190 110 150 100 Q 110 110 110 120" fill="#7c2d12"/>
  
  <!-- Face features -->
  <circle cx="140" cy="125" r="3" fill="#374151"/>
  <circle cx="160" cy="125" r="3" fill="#374151"/>
  <path d="M 145 140 Q 150 145 155 140" stroke="#374151" stroke-width="2" fill="none"/>
  
  <!-- Glasses -->
  <circle cx="140" cy="125" r="12" fill="none" stroke="#374151" stroke-width="2"/>
  <circle cx="160" cy="125" r="12" fill="none" stroke="#374151" stroke-width="2"/>
  <line x1="152" y1="125" x2="148" y2="125" stroke="#374151" stroke-width="2"/>
  
  <!-- Arms -->
  <rect x="80" y="200" width="25" height="60" fill="#fbbf24" rx="12"/>
  <rect x="195" y="200" width="25" height="60" fill="#fbbf24" rx="12"/>
  
  <!-- Briefcase -->
  <rect x="75" y="250" width="20" height="25" fill="#7c2d12" rx="3"/>
  <rect x="77" y="248" width="16" height="4" fill="#92400e"/>
  <circle cx="85" cy="260" r="2" fill="#fbbf24"/>
  
  <!-- Engineering tools -->
  <rect x="200" y="250" width="25" height="3" fill="#9ca3af"/>
  <rect x="200" y="255" width="25" height="3" fill="#9ca3af"/>
  <circle cx="212" cy="265" r="8" fill="none" stroke="#9ca3af" stroke-width="2"/>
  
  <!-- Collar -->
  <path d="M 130 190 L 150 180 L 170 190" stroke="white" stroke-width="3" fill="none"/>
</svg>